{"title":"Jack Goes Boating 2010 DvDRip x264 Feel-Free","uid":6095275,"size":996391708,"categoryP":"video","categoryS":"movies","magnet":"?xt=urn:btih:3e91b93dc8cec387afe357b95326ce2db16f5ee3&amp;dn=Jack+Goes+Boating+2010+DvDRip+x264+Feel-Free&amp;tr=udp%3A%2F%2Ftracker.openbittorrent.com%3A80&amp;tr=udp%3A%2F%2Fopen.demonii.com%3A1337&amp;tr=udp%3A%2F%2Ftracker.coppersurfer.tk%3A6969&amp;tr=udp%3A%2F%2Fexodus.desync.com%3A6969","seeders":0,"leechers":0,"uploader":"neon","files":-1,"time":1294742719,"description":"Genre:Comedy | Romance\nLanguage:English\n &lt;a href=&quot; http://www.imdb.com/title/tt1278379/&quot; rel=&quot;nofollow&quot; target=&quot;_NEW&quot;&gt; http://www.imdb.com/title/tt1278379/&lt;/a&gt;\nSource:DVD\n\nFormat : Matroska\nFile size : 949 MiB\nDuration : 1h 30mn\nOverall bit rate : 1 460 Kbps\n\n\nVideo\nFormat settings, CABAC : Yes\nFormat settings, ReFrames : 4 frames\nCodec ID : V_MPEG4/ISO/AVC\nDuration : 1h 30mn\nBit rate : 1 000 Kbps\nWidth : 720 pixels\nHeight : 384 pixels\nDisplay aspect ratio : 1.875\nFrame rate mode : Variable\nFrame rate : 23.976 fps\nColor space : YUV\nChroma subsampling : 4:2:0\nBit depth : 8 bits\nScan type : Progressive\nBits/(Pixel*Frame) : 0.151\nStream size : 639 MiB (67%)\nWriting library : x264\n\nAudio\nID : 2\nFormat : AC-3\nFormat/Info : Audio Coding 3\nMode extension : CM (complete main)\nCodec ID : A_AC3\nDuration : 1h 30mn\nBit rate mode : Constant\nBit rate : 448 Kbps\nChannel(s) : 6 channels\nChannel positions : Front: L C R, Side: L R, LFE\nSampling rate : 48.0 KHz\nBit depth : 16 bits\nVideo delay : -1mn 5s\nStream size : 291 MiB (31%)\nLanguage : English\n\n\nPlot:\nA limo driver's blind date sparks a tale of love, betrayal, friendship, and grace centered around two working-class New York City couples.\n &lt;a href=&quot;\nhttp://shareimage.org/images/a44hpjyrmxc7tb8kqzwo.png&quot; rel=&quot;nofollow&quot; target=&quot;_NEW&quot;&gt;\nhttp://shareimage.org/images/a44hpjyrmxc7tb8kqzwo.png&lt;/a&gt; &lt;a href=&quot;\nhttp://shareimage.org/images/s3ubcm7jewyutcc00ys.png&quot; rel=&quot;nofollow&quot; target=&quot;_NEW&quot;&gt;\nhttp://shareimage.org/images/s3ubcm7jewyutcc00ys.png&lt;/a&gt; &lt;a href=&quot;\nhttp://shareimage.org/images/1a8h35prpcyzdfdf31q.png&quot; rel=&quot;nofollow&quot; target=&quot;_NEW&quot;&gt;\nhttp://shareimage.org/images/1a8h35prpcyzdfdf31q.png&lt;/a&gt;","torrent":{"xt":"urn:btih:3e91b93dc8cec387afe357b95326ce2db16f5ee3","amp;dn":"Jack+Goes+Boating+2010+DvDRip+x264+Feel-Free","amp;tr":["udp%3A%2F%2Ftracker.openbittorrent.com%3A80","udp%3A%2F%2Fopen.demonii.com%3A1337","udp%3A%2F%2Ftracker.coppersurfer.tk%3A6969","udp%3A%2F%2Fexodus.desync.com%3A6969"],"infoHash":"3e91b93dc8cec387afe357b95326ce2db16f5ee3","infoHashBuffer":{"type":"Buffer","data":[62,145,185,61,200,206,195,135,175,227,87,185,83,38,206,45,177,111,94,227]},"announce":[],"urlList":[]}}